<?xml version="1.0" encoding="utf-8"?>
<!-- Generator: Adobe Illustrator 19.0.0, SVG Export Plug-In . SVG Version: 6.00 Build 0)  -->
<svg version="1.1" id="Layer_1" xmlns="http://www.w3.org/2000/svg" xmlns:xlink="http://www.w3.org/1999/xlink" x="0px" y="0px"
	 viewBox="0 0 96 96" style="enable-background:new 0 0 96 96;" xml:space="preserve">
<style type="text/css">
	.st0{fill:#333333;}
</style>
<g id="XMLID_1_">
	<path id="XMLID_25_" class="st0" d="M56.1,37.8h-4.1v-4.1h4.1V37.8z M27.7,41.9h-4.1V46h4.1V41.9z M48,33.8h-4.1v4.1H48V33.8z
		 M31.8,33.8h-8.1v4.1h8.1V33.8z M64.3,62.2h8.1v-4.1h-8.1V62.2z M48,46h4.1v-4.1H48V46z M31.8,58.2h-8.1v4.1h8.1V58.2z M64.3,33.8
		h-4.1v4.1h4.1V33.8z M72.4,33.8h-4.1v4.1h4.1V33.8z M64.3,54.1h8.1V41.9h-8.1V54.1z M80.5,29.7v36.6c0,2.2-1.8,4.1-4.1,4.1H19.6
		c-2.2,0-4.1-1.8-4.1-4.1V29.7c0-2.2,1.8-4.1,4.1-4.1h56.9C78.7,25.7,80.5,27.5,80.5,29.7z M76.4,29.7H19.6v36.6h56.9V29.7z
		 M39.9,46h4.1v-4.1h-4.1V46z M39.9,33.8h-4.1v4.1h4.1V33.8z M31.8,46h4.1v-4.1h-4.1V46z M35.8,62.2h24.4v-4.1H35.8V62.2z M56.1,46
		h4.1v-4.1h-4.1V46z M27.7,50h-4.1v4.1h4.1V50z M48,50v4.1h4.1V50H48z M39.9,50v4.1h4.1V50H39.9z M35.8,50h-4.1v4.1h4.1V50z
		 M56.1,54.1h4.1V50h-4.1V54.1z"/>
</g>
</svg>
